# Blender v2.70 (sub 0) OBJ File: 'Level.blend'
# www.blender.org
mtllib Level.mtl
o Plane
v -50.000000 0.000000 50.000000
v 50.000000 0.000000 50.000000
v -50.000000 0.000000 -50.000000
v 50.000000 0.000000 -50.000000
v -50.000000 0.000000 50.000000
v 50.000000 0.000000 50.000000
v -50.000000 0.000000 -50.000000
v 50.000000 0.000000 -50.000000
v -50.000000 0.000000 50.000000
v 50.000000 0.000000 50.000000
v -50.000000 0.000000 -50.000000
v 50.000000 0.000000 -50.000000
v -50.000000 10.000000 50.000000
v 50.000000 10.000000 50.000000
v -50.000000 10.000000 -50.000000
v 50.000000 10.000000 -50.000000
vt 7.673662 7.645901
vt -0.012324 7.645905
vt -0.012324 -0.040081
vt 0.000928 8.985093
vt 9.028416 8.985093
vt 9.028416 -0.042395
vt 0.000928 -0.042394
vt 8.984489 1.225999
vt 8.984489 6.379820
vt 1.253758 -1.350910
vt 6.407578 -1.350910
vt 7.673659 -0.040083
vt -1.323154 6.379823
vt -1.323153 1.225999
vt 6.407581 8.956731
vt 1.253758 8.956733
vn 0.000000 1.000000 0.000000
vn 0.000000 0.000000 1.000000
vn -1.000000 0.000000 0.000000
vn 0.000000 0.000000 -1.000000
vn 1.000000 0.000000 0.000000
usemtl None
s off
f 11/1/1 9/2/1 10/3/1
f 7/4/2 11/4/2 12/5/2
f 3/4/2 7/4/2 8/5/2
f 4/5/2 8/5/2 6/6/2
f 2/6/2 6/6/2 5/7/2
f 1/7/2 5/7/2 7/4/2
f 16/8/2 15/9/2 11/1/2
f 8/5/2 12/5/2 10/6/2
f 6/6/2 10/6/2 9/7/2
f 5/7/2 9/7/2 11/4/2
f 14/10/3 16/11/3 12/12/3
f 13/13/4 14/14/4 10/3/4
f 15/15/5 13/16/5 9/2/5
f 12/12/1 11/1/1 10/3/1
f 8/5/2 7/4/2 12/5/2
f 4/5/2 3/4/2 8/5/2
f 2/6/2 4/5/2 6/6/2
f 1/7/2 2/6/2 5/7/2
f 3/4/2 1/7/2 7/4/2
f 12/12/2 16/8/2 11/1/2
f 6/6/2 8/5/2 10/6/2
f 5/7/2 6/6/2 9/7/2
f 7/4/2 5/7/2 11/4/2
f 10/3/3 14/10/3 12/12/3
f 9/2/4 13/13/4 10/3/4
f 11/1/5 15/15/5 9/2/5
